PathFileType  4	(X/Y/Z) C:\Users\Jenny Yong\Documents\NMBL\GaitRetraining\Subject20\WeekOne\
DataRate	CameraRate	NumFrames	NumMarkers	Units	OrigDataRate	OrigDataStartFrame	OrigNumFrames
  200.0		  200.0		    8		     42		 mm	  200.0	      1	    289
Frame#	Time	R.Shoulder			L.Shoulder			R.Clavicle			L.Clavicle			R.Biceps			R.Elbow			R.Forearm			R.Wrist			L.Biceps			L.Elbow			L.Forearm			L.Wrist			R.ASIS			L.ASIS			R.PSIS			S2			L.PSIS			R.TH1			R.TH2			R.TH3			R.Knee			R.SH1			R.SH2			R.SH3			R.SH4			R.Ankle			R.MAnkle			R.Heel			R.MT5			R.Toe			L.TH1			L.TH2			L.TH3			L.TH4			L.Knee			L.SH1			L.SH2			L.SH3			L.Ankle			L.Heel			L.MT5			L.Toe			
		X1	Y1	Z1	X2	Y2	Z2	X3	Y3	Z3	X4	Y4	Z4	X5	Y5	Z5	X6	Y6	Z6	X7	Y7	Z7	X8	Y8	Z8	X9	Y9	Z9	X10	Y10	Z10	X11	Y11	Z11	X12	Y12	Z12	X13	Y13	Z13	X14	Y14	Z14	X15	Y15	Z15	X16	Y16	Z16	X17	Y17	Z17	X18	Y18	Z18	X19	Y19	Z19	X20	Y20	Z20	X21	Y21	Z21	X22	Y22	Z22	X23	Y23	Z23	X24	Y24	Z24	X25	Y25	Z25	X26	Y26	Z26	X27	Y27	Z27	X28	Y28	Z28	X29	Y29	Z29	X30	Y30	Z30	X31	Y31	Z31	X32	Y32	Z32	X33	Y33	Z33	X34	Y34	Z34	X35	Y35	Z35	X36	Y36	Z36	X37	Y37	Z37	X38	Y38	Z38	X39	Y39	Z39	X40	Y40	Z40	X41	Y41	Z41	X42	Y42	Z42	

1	0.00000	-405.131	1284.172	-66.729	-413.958	1291.321	-392.981	-362.979	1237.243	-214.166	-366.538	1237.337	-256.616	-535.901	1140.737	-11.400	-531.882	1008.949	60.186	-446.345	1012.336	-38.193	-336.918	1000.748	-44.383	-460.609	1155.720	-512.882	-496.846	1062.158	-587.758	-424.752	1006.297	-537.205	-312.252	1063.560	-470.421	-411.964	846.265	-101.791	-437.514	890.939	-355.540	-594.569	877.418	-153.659	-605.994	874.984	-198.254	-610.009	896.297	-245.146	-406.601	620.246	-60.620	-505.311	592.285	-93.926	-469.526	468.060	-110.721	-398.968	395.546	-105.675	-451.057	350.171	-101.722	-562.473	346.779	-77.038	-462.679	433.969	-107.032	-583.003	428.219	-95.848	-751.917	351.995	-101.558	-747.393	337.318	-181.295	-785.393	429.520	-138.080	-836.764	258.154	-82.244	-813.553	211.922	-142.993	-426.081	713.931	-400.455	-388.875	587.090	-382.280	-532.469	692.530	-399.386	-506.821	565.094	-368.749	-399.731	425.783	-343.101	-397.361	319.241	-311.045	-469.918	368.797	-347.569	-529.209	267.494	-346.562	-600.707	100.122	-296.254	-691.961	65.468	-257.045	-511.897	41.104	-308.952	-467.432	54.059	-248.816
2	0.00500	-394.636	1285.743	-66.632	-398.801	1291.555	-393.002	-352.155	1238.833	-214.334	-353.178	1238.348	-255.933	-527.734	1144.114	-13.536	-527.368	1012.439	58.826	-444.044	1014.050	-36.375	-330.063	1002.058	-42.330	-440.954	1154.205	-512.497	-473.974	1059.604	-587.124	-401.954	1005.408	-534.139	-291.635	1066.157	-465.749	-400.194	847.823	-101.001	-428.517	891.724	-354.703	-582.749	878.951	-154.623	-593.559	875.810	-199.661	-597.985	897.718	-246.521	-388.864	622.328	-61.134	-488.087	592.553	-93.328	-449.494	469.449	-109.870	-376.335	398.807	-106.609	-428.283	352.278	-103.032	-539.592	347.321	-78.082	-440.087	436.176	-107.506	-560.814	428.477	-96.508	-728.668	349.057	-102.871	-723.819	335.582	-182.739	-764.475	426.478	-138.609	-810.848	252.816	-84.415	-785.773	208.325	-145.323	-414.916	713.863	-399.113	-379.215	586.376	-381.589	-521.581	693.680	-398.405	-498.299	566.031	-370.007	-391.892	423.502	-342.973	-392.375	316.267	-311.223	-466.626	368.009	-347.424	-527.173	267.582	-346.353	-599.807	100.601	-296.366	-691.827	66.797	-256.969	-511.692	40.960	-308.900	-467.103	53.824	-248.848
3	0.01000	-383.949	1287.888	-66.614	-383.733	1292.282	-392.915	-340.162	1240.129	-213.668	-340.273	1239.635	-255.224	-520.077	1147.978	-15.656	-522.538	1016.622	57.294	-438.102	1017.144	-36.249	-324.239	1003.703	-40.389	-421.292	1153.328	-511.750	-451.201	1057.728	-586.207	-379.737	1005.074	-530.807	-272.015	1068.355	-461.072	-388.266	849.732	-100.318	-415.128	891.432	-354.039	-570.316	880.455	-155.550	-582.432	878.751	-200.344	-584.224	898.818	-247.095	-372.787	625.763	-61.140	-471.248	593.638	-93.164	-429.852	471.543	-109.206	-354.319	402.562	-107.272	-405.344	355.011	-104.325	-516.002	347.859	-79.433	-418.974	439.189	-108.034	-539.296	429.016	-97.100	-705.712	345.974	-104.296	-699.705	333.373	-183.637	-743.648	422.958	-139.327	-785.206	247.181	-86.524	-758.671	203.781	-147.956	-403.855	713.862	-398.300	-369.943	585.892	-381.093	-510.770	694.880	-399.635	-489.174	566.705	-370.362	-388.551	422.039	-342.700	-392.154	315.969	-311.614	-463.262	367.261	-347.393	-524.737	267.302	-346.032	-599.032	101.392	-296.385	-691.397	68.051	-257.054	-511.385	41.010	-308.756	-467.078	53.453	-248.827
4	0.01500	-373.290	1290.559	-66.478	-368.828	1293.468	-392.746	-327.162	1242.381	-212.939	-326.793	1241.586	-254.557	-511.758	1152.197	-17.987	-518.008	1021.367	55.684	-431.268	1020.794	-36.263	-318.674	1005.740	-38.404	-401.801	1152.893	-510.752	-429.182	1056.332	-584.776	-358.032	1005.303	-527.372	-253.306	1071.116	-455.627	-375.978	852.158	-99.381	-404.290	889.621	-353.483	-559.333	883.385	-156.316	-569.825	881.497	-201.292	-571.334	901.217	-248.306	-357.285	629.607	-61.005	-454.575	594.521	-93.090	-409.378	473.763	-108.976	-331.808	406.820	-107.697	-382.618	358.679	-105.708	-493.605	349.003	-80.527	-398.160	442.750	-108.568	-517.909	429.595	-97.843	-683.190	342.526	-105.832	-677.107	331.580	-185.913	-723.416	418.898	-140.129	-758.518	240.748	-88.519	-731.378	198.928	-150.607	-393.518	713.741	-397.323	-361.442	585.516	-380.814	-500.722	695.820	-400.381	-480.880	567.706	-369.717	-385.917	421.129	-342.356	-389.117	314.869	-310.960	-460.292	366.788	-347.047	-522.763	267.274	-345.654	-598.244	102.300	-296.437	-692.725	70.720	-257.625	-511.207	41.181	-308.674	-466.888	53.412	-248.900
5	0.02000	-363.216	1293.521	-66.315	-353.775	1295.089	-392.536	-314.648	1244.583	-211.990	-313.911	1244.030	-253.802	-503.555	1157.194	-20.303	-513.486	1026.725	54.035	-424.506	1024.930	-36.062	-311.972	1009.031	-36.466	-382.243	1153.101	-509.593	-407.111	1055.537	-583.144	-336.511	1006.275	-523.645	-234.591	1073.157	-448.664	-364.339	854.572	-98.441	-390.486	890.080	-352.959	-547.360	886.671	-156.863	-556.944	884.372	-202.060	-558.458	904.066	-249.598	-343.663	634.640	-60.225	-437.712	596.248	-92.985	-390.234	477.109	-108.462	-311.312	412.429	-108.732	-360.337	362.749	-106.760	-470.771	350.095	-81.875	-377.614	446.405	-109.140	-497.402	430.380	-98.670	-660.693	338.871	-107.227	-653.322	328.334	-187.555	-702.594	413.879	-141.366	-733.186	234.969	-91.060	-710.873	191.596	-152.928	-383.573	713.636	-396.449	-353.119	585.056	-380.011	-490.363	697.126	-401.066	-472.989	569.058	-368.431	-386.666	421.773	-342.376	-386.269	313.782	-310.278	-457.311	366.691	-346.790	-521.222	267.788	-345.080	-597.763	103.476	-296.359	-690.343	70.357	-257.061	-511.138	41.426	-308.650	-466.857	53.457	-248.891
6	0.02500	-353.018	1296.907	-66.076	-338.938	1297.212	-392.193	-302.172	1247.485	-211.058	-300.205	1246.982	-253.012	-495.078	1162.433	-22.566	-508.975	1032.596	52.271	-418.134	1029.757	-36.542	-306.383	1012.187	-34.469	-363.374	1153.752	-508.165	-385.539	1055.160	-581.208	-314.921	1008.014	-519.673	-216.164	1077.106	-442.972	-352.539	857.408	-97.355	-377.079	890.530	-352.462	-534.487	889.370	-157.312	-543.651	887.468	-202.870	-547.011	907.288	-248.870	-328.729	638.976	-59.713	-421.913	598.863	-92.552	-370.775	480.697	-108.547	-289.835	417.724	-109.140	-338.459	367.508	-107.821	-448.366	351.580	-83.057	-357.881	450.491	-110.148	-477.086	430.974	-99.433	-638.120	334.998	-108.862	-629.532	325.100	-189.170	-682.103	408.476	-142.496	-707.221	228.749	-93.397	-682.582	186.516	-155.501	-373.987	713.532	-395.738	-345.145	584.850	-378.892	-480.326	698.616	-401.336	-465.329	570.655	-366.788	-386.597	419.609	-341.864	-384.252	313.870	-309.540	-455.336	367.612	-346.464	-518.951	268.658	-344.615	-597.290	104.928	-296.208	-689.996	72.553	-256.945	-511.153	41.718	-308.706	-466.702	53.432	-248.795
7	0.03000	-342.964	1300.746	-65.952	-324.152	1299.691	-391.628	-289.414	1250.784	-209.944	-287.246	1250.300	-252.118	-486.437	1167.706	-24.993	-504.216	1038.975	50.500	-412.944	1034.871	-36.929	-299.724	1016.396	-32.328	-344.678	1154.856	-506.626	-364.513	1055.400	-578.971	-294.387	1010.147	-515.635	-196.664	1081.377	-439.489	-340.710	860.646	-96.383	-363.123	891.415	-351.931	-521.927	893.084	-157.597	-530.099	890.607	-203.482	-533.388	911.038	-249.542	-314.058	644.093	-59.629	-405.924	601.775	-92.423	-350.495	483.794	-108.165	-269.646	423.911	-109.738	-316.117	372.781	-108.817	-426.173	353.238	-84.237	-338.038	454.381	-111.091	-457.668	431.615	-100.515	-615.771	330.948	-110.547	-606.384	321.304	-190.970	-662.137	402.677	-144.003	-680.140	221.768	-95.795	-653.690	181.431	-158.221	-364.257	713.584	-395.141	-338.017	584.431	-377.075	-470.299	700.722	-401.606	-457.719	572.388	-365.302	-383.939	422.227	-340.173	-381.684	314.607	-308.565	-452.075	367.867	-345.684	-517.110	269.957	-344.078	-596.662	106.844	-296.125	-689.224	74.690	-257.041	-511.266	42.145	-308.620	-466.705	53.657	-248.735
8	0.03500	-332.644	1304.894	-65.756	-309.078	1302.596	-391.061	-276.870	1254.349	-208.829	-273.599	1253.949	-251.174	-477.834	1173.538	-27.382	-499.334	1045.665	48.751	-406.700	1040.363	-37.315	-294.025	1020.772	-30.459	-327.019	1156.809	-504.917	-343.707	1056.082	-576.496	-273.940	1012.774	-511.288	-179.704	1086.090	-432.994	-327.805	864.540	-95.464	-349.529	892.678	-351.424	-509.088	896.701	-157.807	-518.440	895.426	-203.514	-518.550	913.601	-250.900	-299.356	649.429	-59.164	-389.317	604.440	-92.650	-332.240	488.849	-108.697	-250.463	430.942	-110.746	-295.250	377.996	-109.825	-404.195	354.864	-85.414	-319.142	458.586	-111.921	-437.295	432.218	-101.272	-593.260	326.666	-112.354	-578.674	314.192	-190.830	-641.822	396.039	-145.871	-653.255	214.837	-98.238	-624.898	175.888	-160.904	-355.271	712.955	-394.807	-331.196	584.317	-374.777	-460.918	701.348	-405.038	-451.193	574.802	-363.787	-381.920	423.236	-339.403	-379.849	315.940	-307.676	-450.639	369.807	-344.653	-515.048	271.481	-343.571	-595.912	108.683	-296.151	-688.399	76.841	-257.252	-511.554	42.540	-308.659	-466.261	53.977	-248.601
